
            
        <svg
            width="649.9999999999999"
            height="750"
            viewBox="-0.97 -2.1 2.8 3.2"
            xmlns="http://www.w3.org/2000/svg"
        >
    
                <path d="M 0 0 L 0 -1" stroke="rgba(255, 0, 0, .5)" stroke-width="0.02"/>
<path d="M 0 -1 L 0.86 -0.5" stroke="rgba(255, 0, 0, .5)" stroke-width="0.02"/>
<path d="M 0 -1 L 0.86 -1.5" stroke="rgba(255, 0, 0, .5)" stroke-width="0.02"/>
<path d="M 0.86 -1.5 L 1.72 -1" stroke="rgba(255, 0, 0, .5)" stroke-width="0.02"/>
<path d="M 0.86 -1.5 L -0.01 -2" stroke="rgba(255, 0, 0, .5)" stroke-width="0.02"/>
<path d="M 0 -1 L 0 -2" stroke="rgba(255, 0, 0, .5)" stroke-width="0.02"/>
<path d="M 0 0 L 0.86 -0.5" stroke="rgba(255, 0, 0, .5)" stroke-width="0.02"/>
<path d="M 0.86 -0.5 L 1.72 -1" stroke="rgba(255, 0, 0, .5)" stroke-width="0.02"/>
<path d="M 0.86 -0.5 L 0.86 -1.5" stroke="rgba(255, 0, 0, .5)" stroke-width="0.02"/>
<path d="M 0.86 -0.5 L -0.01 -1" stroke="rgba(255, 0, 0, .5)" stroke-width="0.02"/>
                <path d="M 0 0 L 0.86 0.49" stroke="rgba(0, 255, 0, .5)" stroke-width="0.02"/>
<path d="M 0.86 0.49 L 0.86 -0.51" stroke="rgba(0, 255, 0, .5)" stroke-width="0.02"/>
<path d="M 0.86 0.49 L -0.01 0.99" stroke="rgba(0, 255, 0, .5)" stroke-width="0.02"/>
<path d="M 0 0 L 0 -1" stroke="rgba(0, 255, 0, .5)" stroke-width="0.02"/>
<path d="M 0 -1 L 0.86 -0.5" stroke="rgba(0, 255, 0, .5)" stroke-width="0.02"/>
<path d="M 0 -1 L -0.87 -0.5" stroke="rgba(0, 255, 0, .5)" stroke-width="0.02"/>
<path d="M 0 0 L -0.87 0.49" stroke="rgba(0, 255, 0, .5)" stroke-width="0.02"/>
<path d="M -0.87 0.49 L -0.01 0.99" stroke="rgba(0, 255, 0, .5)" stroke-width="0.02"/>
<path d="M -0.87 0.49 L -0.87 -0.51" stroke="rgba(0, 255, 0, .5)" stroke-width="0.02"/>

                <path d="M 0 0 L 0 -1" stroke="rgba(255, 0, 0, .5)" stroke-width="0.02"/>
<path d="M 0 -1 L 0.86 -0.5" stroke="rgba(255, 0, 0, .5)" stroke-width="0.02"/>
<path d="M 0 -1 L 0.86 -1.5" stroke="rgba(255, 0, 0, .5)" stroke-width="0.02"/>
<path d="M 0.86 -1.5 L 1.72 -1" stroke="rgba(255, 0, 0, .5)" stroke-width="0.02"/>
<path d="M 0.86 -1.5 L -0.01 -2" stroke="rgba(255, 0, 0, .5)" stroke-width="0.02"/>
<path d="M 0 -1 L 0 -2" stroke="rgba(255, 0, 0, .5)" stroke-width="0.02"/>
<path d="M 0 0 L 0.86 -0.5" stroke="rgba(255, 0, 0, .5)" stroke-width="0.02"/>
<path d="M 0.86 -0.5 L 1.72 -1" stroke="rgba(255, 0, 0, .5)" stroke-width="0.02"/>
<path d="M 0.86 -0.5 L 0.86 -1.5" stroke="rgba(255, 0, 0, .5)" stroke-width="0.02"/>
<path d="M 0.86 -0.5 L -0.01 -1" stroke="rgba(255, 0, 0, .5)" stroke-width="0.02"/>
                <path d="M 0 0 L 0.86 0.49" stroke="rgba(0, 255, 0, .5)" stroke-width="0.02"/>
<path d="M 0.86 0.49 L 0.86 -0.51" stroke="rgba(0, 255, 0, .5)" stroke-width="0.02"/>
<path d="M 0.86 0.49 L -0.01 0.99" stroke="rgba(0, 255, 0, .5)" stroke-width="0.02"/>
<path d="M 0 0 L 0 -1" stroke="rgba(0, 255, 0, .5)" stroke-width="0.02"/>
<path d="M 0 -1 L 0.86 -0.5" stroke="rgba(0, 255, 0, .5)" stroke-width="0.02"/>
<path d="M 0 -1 L -0.87 -0.5" stroke="rgba(0, 255, 0, .5)" stroke-width="0.02"/>
<path d="M 0 0 L -0.87 0.49" stroke="rgba(0, 255, 0, .5)" stroke-width="0.02"/>
<path d="M -0.87 0.49 L -0.01 0.99" stroke="rgba(0, 255, 0, .5)" stroke-width="0.02"/>
<path d="M -0.87 0.49 L -0.87 -0.51" stroke="rgba(0, 255, 0, .5)" stroke-width="0.02"/>

                <path d="M 0 0 L 0 -1" stroke="rgba(255, 0, 0, .5)" stroke-width="0.02"/>
<path d="M 0 -1 L 0.86 -0.5" stroke="rgba(255, 0, 0, .5)" stroke-width="0.02"/>
<path d="M 0 -1 L 0.86 -1.5" stroke="rgba(255, 0, 0, .5)" stroke-width="0.02"/>
<path d="M 0.86 -1.5 L 1.72 -1" stroke="rgba(255, 0, 0, .5)" stroke-width="0.02"/>
<path d="M 0.86 -1.5 L -0.01 -2" stroke="rgba(255, 0, 0, .5)" stroke-width="0.02"/>
<path d="M 0 -1 L 0 -2" stroke="rgba(255, 0, 0, .5)" stroke-width="0.02"/>
<path d="M 0 0 L 0.86 -0.5" stroke="rgba(255, 0, 0, .5)" stroke-width="0.02"/>
<path d="M 0.86 -0.5 L 1.72 -1" stroke="rgba(255, 0, 0, .5)" stroke-width="0.02"/>
<path d="M 0.86 -0.5 L 0.86 -1.5" stroke="rgba(255, 0, 0, .5)" stroke-width="0.02"/>
<path d="M 0.86 -0.5 L -0.01 -1" stroke="rgba(255, 0, 0, .5)" stroke-width="0.02"/>
                <path d="M 0 0 L 0.86 0.49" stroke="rgba(0, 255, 0, .5)" stroke-width="0.02"/>
<path d="M 0.86 0.49 L 0.86 -0.51" stroke="rgba(0, 255, 0, .5)" stroke-width="0.02"/>
<path d="M 0.86 0.49 L -0.01 0.99" stroke="rgba(0, 255, 0, .5)" stroke-width="0.02"/>
<path d="M 0 0 L 0 -1" stroke="rgba(0, 255, 0, .5)" stroke-width="0.02"/>
<path d="M 0 -1 L 0.86 -0.5" stroke="rgba(0, 255, 0, .5)" stroke-width="0.02"/>
<path d="M 0 -1 L -0.87 -0.5" stroke="rgba(0, 255, 0, .5)" stroke-width="0.02"/>
<path d="M 0 0 L -0.87 0.49" stroke="rgba(0, 255, 0, .5)" stroke-width="0.02"/>
<path d="M -0.87 0.49 L -0.01 0.99" stroke="rgba(0, 255, 0, .5)" stroke-width="0.02"/>
<path d="M -0.87 0.49 L -0.87 -0.51" stroke="rgba(0, 255, 0, .5)" stroke-width="0.02"/>
            </svg>
        