
            
        <svg
            width="1002.5"
            height="502.49999999999994"
            viewBox="-0.1 -1.1 4.21 2.21"
            xmlns="http://www.w3.org/2000/svg"
        >
    
                <path d="M 0 0 L 1 0" stroke="rgba(255, 0, 0, .5)" stroke-width="0.02"/>
<path d="M 1 0 L 1 -1" stroke="rgba(255, 0, 0, .5)" stroke-width="0.02"/>
<path d="M 1 0 L 2 0" stroke="rgba(255, 0, 0, .5)" stroke-width="0.02"/>
<path d="M 2 0 L 2 -1" stroke="rgba(255, 0, 0, .5)" stroke-width="0.02"/>
<path d="M 2 0 L 2 1" stroke="rgba(255, 0, 0, .5)" stroke-width="0.02"/>
<path d="M 2 1 L 3 1" stroke="rgba(255, 0, 0, .5)" stroke-width="0.02"/>
<path d="M 2 0 L 3 0" stroke="rgba(255, 0, 0, .5)" stroke-width="0.02"/>
<path d="M 3 0 L 3 -1" stroke="rgba(255, 0, 0, .5)" stroke-width="0.02"/>
<path d="M 3 0 L 3 1" stroke="rgba(255, 0, 0, .5)" stroke-width="0.02"/>
<path d="M 3 1 L 4 1" stroke="rgba(255, 0, 0, .5)" stroke-width="0.02"/>
<path d="M 3 0 L 4 0" stroke="rgba(255, 0, 0, .5)" stroke-width="0.02"/>
<path d="M 4 0 L 4 1" stroke="rgba(255, 0, 0, .5)" stroke-width="0.02"/>
<path d="M 0 0 L 0 -1" stroke="rgba(255, 0, 0, .5)" stroke-width="0.02"/>
<path d="M 0 -1 L 1 -1" stroke="rgba(255, 0, 0, .5)" stroke-width="0.02"/>
<path d="M 1 -1 L 2 -1" stroke="rgba(255, 0, 0, .5)" stroke-width="0.02"/>
<path d="M 2 -1 L 3 -1" stroke="rgba(255, 0, 0, .5)" stroke-width="0.02"/>
                <path d="M 0 0 L 0 -1" stroke="rgba(0, 255, 0, .5)" stroke-width="0.02"/>
<path d="M 0 -1 L 1 -1" stroke="rgba(0, 255, 0, .5)" stroke-width="0.02"/>
<path d="M 0 0 L 1 0" stroke="rgba(0, 255, 0, .5)" stroke-width="0.02"/>
<path d="M 1 0 L 1 -1" stroke="rgba(0, 255, 0, .5)" stroke-width="0.02"/>
<path d="M 1 0 L 1 1" stroke="rgba(0, 255, 0, .5)" stroke-width="0.02"/>
<path d="M 1 1 L 2 1" stroke="rgba(0, 255, 0, .5)" stroke-width="0.02"/>
<path d="M 1 0 L 2 0" stroke="rgba(0, 255, 0, .5)" stroke-width="0.02"/>
<path d="M 2 0 L 2 -1" stroke="rgba(0, 255, 0, .5)" stroke-width="0.02"/>
<path d="M 2 -1 L 3 -1" stroke="rgba(0, 255, 0, .5)" stroke-width="0.02"/>
<path d="M 2 0 L 2 1" stroke="rgba(0, 255, 0, .5)" stroke-width="0.02"/>
<path d="M 2 0 L 3 0" stroke="rgba(0, 255, 0, .5)" stroke-width="0.02"/>
<path d="M 3 0 L 3 -1" stroke="rgba(0, 255, 0, .5)" stroke-width="0.02"/>
<path d="M 3 0 L 3 1" stroke="rgba(0, 255, 0, .5)" stroke-width="0.02"/>
<path d="M 3 1 L 4 1" stroke="rgba(0, 255, 0, .5)" stroke-width="0.02"/>
<path d="M 3 0 L 4 0" stroke="rgba(0, 255, 0, .5)" stroke-width="0.02"/>
<path d="M 4 0 L 4 1" stroke="rgba(0, 255, 0, .5)" stroke-width="0.02"/>

                <path d="M 0 0 L 1 0" stroke="rgba(255, 0, 0, .5)" stroke-width="0.02"/>
<path d="M 1 0 L 1 -1" stroke="rgba(255, 0, 0, .5)" stroke-width="0.02"/>
<path d="M 1 0 L 2 0" stroke="rgba(255, 0, 0, .5)" stroke-width="0.02"/>
<path d="M 2 0 L 2 -1" stroke="rgba(255, 0, 0, .5)" stroke-width="0.02"/>
<path d="M 2 0 L 2 1" stroke="rgba(255, 0, 0, .5)" stroke-width="0.02"/>
<path d="M 2 1 L 3 1" stroke="rgba(255, 0, 0, .5)" stroke-width="0.02"/>
<path d="M 2 0 L 3 0" stroke="rgba(255, 0, 0, .5)" stroke-width="0.02"/>
<path d="M 3 0 L 3 -1" stroke="rgba(255, 0, 0, .5)" stroke-width="0.02"/>
<path d="M 3 0 L 3 1" stroke="rgba(255, 0, 0, .5)" stroke-width="0.02"/>
<path d="M 3 1 L 4 1" stroke="rgba(255, 0, 0, .5)" stroke-width="0.02"/>
<path d="M 3 0 L 4 0" stroke="rgba(255, 0, 0, .5)" stroke-width="0.02"/>
<path d="M 4 0 L 4 1" stroke="rgba(255, 0, 0, .5)" stroke-width="0.02"/>
<path d="M 0 0 L 0 -1" stroke="rgba(255, 0, 0, .5)" stroke-width="0.02"/>
<path d="M 0 -1 L 1 -1" stroke="rgba(255, 0, 0, .5)" stroke-width="0.02"/>
<path d="M 1 -1 L 2 -1" stroke="rgba(255, 0, 0, .5)" stroke-width="0.02"/>
<path d="M 2 -1 L 3 -1" stroke="rgba(255, 0, 0, .5)" stroke-width="0.02"/>
                <path d="M 0 0 L 0 -1" stroke="rgba(0, 255, 0, .5)" stroke-width="0.02"/>
<path d="M 0 -1 L 1 -1" stroke="rgba(0, 255, 0, .5)" stroke-width="0.02"/>
<path d="M 0 0 L 1 0" stroke="rgba(0, 255, 0, .5)" stroke-width="0.02"/>
<path d="M 1 0 L 1 -1" stroke="rgba(0, 255, 0, .5)" stroke-width="0.02"/>
<path d="M 1 0 L 1 1" stroke="rgba(0, 255, 0, .5)" stroke-width="0.02"/>
<path d="M 1 1 L 2 1" stroke="rgba(0, 255, 0, .5)" stroke-width="0.02"/>
<path d="M 1 0 L 2 0" stroke="rgba(0, 255, 0, .5)" stroke-width="0.02"/>
<path d="M 2 0 L 2 -1" stroke="rgba(0, 255, 0, .5)" stroke-width="0.02"/>
<path d="M 2 -1 L 3 -1" stroke="rgba(0, 255, 0, .5)" stroke-width="0.02"/>
<path d="M 2 0 L 2 1" stroke="rgba(0, 255, 0, .5)" stroke-width="0.02"/>
<path d="M 2 0 L 3 0" stroke="rgba(0, 255, 0, .5)" stroke-width="0.02"/>
<path d="M 3 0 L 3 -1" stroke="rgba(0, 255, 0, .5)" stroke-width="0.02"/>
<path d="M 3 0 L 3 1" stroke="rgba(0, 255, 0, .5)" stroke-width="0.02"/>
<path d="M 3 1 L 4 1" stroke="rgba(0, 255, 0, .5)" stroke-width="0.02"/>
<path d="M 3 0 L 4 0" stroke="rgba(0, 255, 0, .5)" stroke-width="0.02"/>
<path d="M 4 0 L 4 1" stroke="rgba(0, 255, 0, .5)" stroke-width="0.02"/>

                <path d="M 0 0 L 1 0" stroke="rgba(255, 0, 0, .5)" stroke-width="0.02"/>
<path d="M 1 0 L 1 -1" stroke="rgba(255, 0, 0, .5)" stroke-width="0.02"/>
<path d="M 1 0 L 2 0" stroke="rgba(255, 0, 0, .5)" stroke-width="0.02"/>
<path d="M 2 0 L 2 -1" stroke="rgba(255, 0, 0, .5)" stroke-width="0.02"/>
<path d="M 2 0 L 2 1" stroke="rgba(255, 0, 0, .5)" stroke-width="0.02"/>
<path d="M 2 1 L 3 1" stroke="rgba(255, 0, 0, .5)" stroke-width="0.02"/>
<path d="M 2 0 L 3 0" stroke="rgba(255, 0, 0, .5)" stroke-width="0.02"/>
<path d="M 3 0 L 3 -1" stroke="rgba(255, 0, 0, .5)" stroke-width="0.02"/>
<path d="M 3 0 L 3 1" stroke="rgba(255, 0, 0, .5)" stroke-width="0.02"/>
<path d="M 3 1 L 4 1" stroke="rgba(255, 0, 0, .5)" stroke-width="0.02"/>
<path d="M 3 0 L 4 0" stroke="rgba(255, 0, 0, .5)" stroke-width="0.02"/>
<path d="M 4 0 L 4 1" stroke="rgba(255, 0, 0, .5)" stroke-width="0.02"/>
<path d="M 0 0 L 0 -1" stroke="rgba(255, 0, 0, .5)" stroke-width="0.02"/>
<path d="M 0 -1 L 1 -1" stroke="rgba(255, 0, 0, .5)" stroke-width="0.02"/>
<path d="M 1 -1 L 2 -1" stroke="rgba(255, 0, 0, .5)" stroke-width="0.02"/>
<path d="M 2 -1 L 3 -1" stroke="rgba(255, 0, 0, .5)" stroke-width="0.02"/>
                <path d="M 0 0 L 0 -1" stroke="rgba(0, 255, 0, .5)" stroke-width="0.02"/>
<path d="M 0 -1 L 1 -1" stroke="rgba(0, 255, 0, .5)" stroke-width="0.02"/>
<path d="M 0 0 L 1 0" stroke="rgba(0, 255, 0, .5)" stroke-width="0.02"/>
<path d="M 1 0 L 1 -1" stroke="rgba(0, 255, 0, .5)" stroke-width="0.02"/>
<path d="M 1 0 L 1 1" stroke="rgba(0, 255, 0, .5)" stroke-width="0.02"/>
<path d="M 1 1 L 2 1" stroke="rgba(0, 255, 0, .5)" stroke-width="0.02"/>
<path d="M 1 0 L 2 0" stroke="rgba(0, 255, 0, .5)" stroke-width="0.02"/>
<path d="M 2 0 L 2 -1" stroke="rgba(0, 255, 0, .5)" stroke-width="0.02"/>
<path d="M 2 -1 L 3 -1" stroke="rgba(0, 255, 0, .5)" stroke-width="0.02"/>
<path d="M 2 0 L 2 1" stroke="rgba(0, 255, 0, .5)" stroke-width="0.02"/>
<path d="M 2 0 L 3 0" stroke="rgba(0, 255, 0, .5)" stroke-width="0.02"/>
<path d="M 3 0 L 3 -1" stroke="rgba(0, 255, 0, .5)" stroke-width="0.02"/>
<path d="M 3 0 L 3 1" stroke="rgba(0, 255, 0, .5)" stroke-width="0.02"/>
<path d="M 3 1 L 4 1" stroke="rgba(0, 255, 0, .5)" stroke-width="0.02"/>
<path d="M 3 0 L 4 0" stroke="rgba(0, 255, 0, .5)" stroke-width="0.02"/>
<path d="M 4 0 L 4 1" stroke="rgba(0, 255, 0, .5)" stroke-width="0.02"/>
            </svg>
        