
            
        <svg
            width="867.4999999999999"
            height="867.4999999999999"
            viewBox="-1.84 -1.84 3.67 3.67"
            xmlns="http://www.w3.org/2000/svg"
        >
    
                <path d="M 0 0 L 0.86 -0.5" stroke="black" stroke-width="0.02"/>
<path d="M 0.86 -0.5 L 1.72 0" stroke="black" stroke-width="0.02"/>
<path d="M 0 0 L 0.5 -0.87" stroke="black" stroke-width="0.02"/>
<path d="M 0.5 -0.87 L 0 -1.74" stroke="black" stroke-width="0.02"/>
<path d="M 0 0 L -0.5 -0.87" stroke="black" stroke-width="0.02"/>
<path d="M -0.5 -0.87 L 0 -1.74" stroke="black" stroke-width="0.02"/>
<path d="M 0 0 L -0.87 -0.5" stroke="black" stroke-width="0.02"/>
<path d="M -0.87 -0.5 L -1.74 0" stroke="black" stroke-width="0.02"/>
<path d="M 0 0 L -0.87 0.5" stroke="black" stroke-width="0.02"/>
<path d="M -0.87 0.5 L -1.74 0" stroke="black" stroke-width="0.02"/>
<path d="M 0 0 L -0.51 0.86" stroke="black" stroke-width="0.02"/>
<path d="M -0.51 0.86 L -0.01 1.72" stroke="black" stroke-width="0.02"/>
<path d="M 0 0 L 0.5 0.86" stroke="black" stroke-width="0.02"/>
<path d="M 0.5 0.86 L -0.01 1.72" stroke="black" stroke-width="0.02"/>
<path d="M 0 0 L 0.86 0.5" stroke="black" stroke-width="0.02"/>
<path d="M 0.86 0.5 L 1.72 0" stroke="black" stroke-width="0.02"/>
            </svg>
        