
            
        <svg
            width="867.4999999999999"
            height="1002.5"
            viewBox="-1.84 -2.1 3.67 4.21"
            xmlns="http://www.w3.org/2000/svg"
        >
    
                <path d="M 0 0 L 0.86 -0.5" stroke="rgba(255, 0, 0, .5)" stroke-width="0.02"/>
<path d="M 0.86 -0.5 L 1.72 0" stroke="rgba(255, 0, 0, .5)" stroke-width="0.02"/>
<path d="M 0 0 L 0.5 -0.87" stroke="rgba(255, 0, 0, .5)" stroke-width="0.02"/>
<path d="M 0.5 -0.87 L 0 -1.74" stroke="rgba(255, 0, 0, .5)" stroke-width="0.02"/>
<path d="M 0 0 L -0.5 -0.87" stroke="rgba(255, 0, 0, .5)" stroke-width="0.02"/>
<path d="M -0.5 -0.87 L 0 -1.74" stroke="rgba(255, 0, 0, .5)" stroke-width="0.02"/>
<path d="M 0 0 L -0.87 -0.5" stroke="rgba(255, 0, 0, .5)" stroke-width="0.02"/>
<path d="M -0.87 -0.5 L -1.74 0" stroke="rgba(255, 0, 0, .5)" stroke-width="0.02"/>
<path d="M 0 0 L -0.87 0.5" stroke="rgba(255, 0, 0, .5)" stroke-width="0.02"/>
<path d="M -0.87 0.5 L -1.74 0" stroke="rgba(255, 0, 0, .5)" stroke-width="0.02"/>
<path d="M 0 0 L -0.51 0.86" stroke="rgba(255, 0, 0, .5)" stroke-width="0.02"/>
<path d="M -0.51 0.86 L -0.01 1.72" stroke="rgba(255, 0, 0, .5)" stroke-width="0.02"/>
<path d="M 0 0 L 0.5 0.86" stroke="rgba(255, 0, 0, .5)" stroke-width="0.02"/>
<path d="M 0.5 0.86 L -0.01 1.72" stroke="rgba(255, 0, 0, .5)" stroke-width="0.02"/>
<path d="M 0 0 L 0.86 0.5" stroke="rgba(255, 0, 0, .5)" stroke-width="0.02"/>
<path d="M 0.86 0.5 L 1.72 0" stroke="rgba(255, 0, 0, .5)" stroke-width="0.02"/>
                <path d="M 0 0 L 1 0" stroke="rgba(0, 255, 0, .5)" stroke-width="0.02"/>
<path d="M 0 0 L 0.86 -0.5" stroke="rgba(0, 255, 0, .5)" stroke-width="0.02"/>
<path d="M 0 0 L 0.5 -0.87" stroke="rgba(0, 255, 0, .5)" stroke-width="0.02"/>
<path d="M 0 0 L 0 -1" stroke="rgba(0, 255, 0, .5)" stroke-width="0.02"/>
<path d="M 0 -1 L 0 -2" stroke="rgba(0, 255, 0, .5)" stroke-width="0.02"/>
<path d="M 0 0 L -0.5 -0.87" stroke="rgba(0, 255, 0, .5)" stroke-width="0.02"/>
<path d="M 0 0 L -0.87 -0.5" stroke="rgba(0, 255, 0, .5)" stroke-width="0.02"/>
<path d="M 0 0 L -1 -0.01" stroke="rgba(0, 255, 0, .5)" stroke-width="0.02"/>
<path d="M 0 0 L -0.87 0.5" stroke="rgba(0, 255, 0, .5)" stroke-width="0.02"/>
<path d="M 0 0 L -0.51 0.86" stroke="rgba(0, 255, 0, .5)" stroke-width="0.02"/>
<path d="M -0.51 0.86 L -1.02 1.72" stroke="rgba(0, 255, 0, .5)" stroke-width="0.02"/>
<path d="M 0 0 L -0.01 1" stroke="rgba(0, 255, 0, .5)" stroke-width="0.02"/>
<path d="M -0.01 1 L -0.02 2" stroke="rgba(0, 255, 0, .5)" stroke-width="0.02"/>
<path d="M 0 0 L 0.5 0.86" stroke="rgba(0, 255, 0, .5)" stroke-width="0.02"/>
<path d="M 0.5 0.86 L 1 1.72" stroke="rgba(0, 255, 0, .5)" stroke-width="0.02"/>
<path d="M 0 0 L 0.86 0.5" stroke="rgba(0, 255, 0, .5)" stroke-width="0.02"/>

                <path d="M 0 0 L 0.86 -0.5" stroke="rgba(255, 0, 0, .5)" stroke-width="0.02"/>
<path d="M 0.86 -0.5 L 1.72 0" stroke="rgba(255, 0, 0, .5)" stroke-width="0.02"/>
<path d="M 0 0 L 0.5 -0.87" stroke="rgba(255, 0, 0, .5)" stroke-width="0.02"/>
<path d="M 0.5 -0.87 L 0 -1.74" stroke="rgba(255, 0, 0, .5)" stroke-width="0.02"/>
<path d="M 0 0 L -0.5 -0.87" stroke="rgba(255, 0, 0, .5)" stroke-width="0.02"/>
<path d="M -0.5 -0.87 L 0 -1.74" stroke="rgba(255, 0, 0, .5)" stroke-width="0.02"/>
<path d="M 0 0 L -0.87 -0.5" stroke="rgba(255, 0, 0, .5)" stroke-width="0.02"/>
<path d="M -0.87 -0.5 L -1.74 0" stroke="rgba(255, 0, 0, .5)" stroke-width="0.02"/>
<path d="M 0 0 L -0.87 0.5" stroke="rgba(255, 0, 0, .5)" stroke-width="0.02"/>
<path d="M -0.87 0.5 L -1.74 0" stroke="rgba(255, 0, 0, .5)" stroke-width="0.02"/>
<path d="M 0 0 L -0.51 0.86" stroke="rgba(255, 0, 0, .5)" stroke-width="0.02"/>
<path d="M -0.51 0.86 L -0.01 1.72" stroke="rgba(255, 0, 0, .5)" stroke-width="0.02"/>
<path d="M 0 0 L 0.5 0.86" stroke="rgba(255, 0, 0, .5)" stroke-width="0.02"/>
<path d="M 0.5 0.86 L -0.01 1.72" stroke="rgba(255, 0, 0, .5)" stroke-width="0.02"/>
<path d="M 0 0 L 0.86 0.5" stroke="rgba(255, 0, 0, .5)" stroke-width="0.02"/>
<path d="M 0.86 0.5 L 1.72 0" stroke="rgba(255, 0, 0, .5)" stroke-width="0.02"/>
                <path d="M 0 0 L 1 0" stroke="rgba(0, 255, 0, .5)" stroke-width="0.02"/>
<path d="M 0 0 L 0.86 -0.5" stroke="rgba(0, 255, 0, .5)" stroke-width="0.02"/>
<path d="M 0 0 L 0.5 -0.87" stroke="rgba(0, 255, 0, .5)" stroke-width="0.02"/>
<path d="M 0 0 L 0 -1" stroke="rgba(0, 255, 0, .5)" stroke-width="0.02"/>
<path d="M 0 -1 L 0 -2" stroke="rgba(0, 255, 0, .5)" stroke-width="0.02"/>
<path d="M 0 0 L -0.5 -0.87" stroke="rgba(0, 255, 0, .5)" stroke-width="0.02"/>
<path d="M 0 0 L -0.87 -0.5" stroke="rgba(0, 255, 0, .5)" stroke-width="0.02"/>
<path d="M 0 0 L -1 -0.01" stroke="rgba(0, 255, 0, .5)" stroke-width="0.02"/>
<path d="M 0 0 L -0.87 0.5" stroke="rgba(0, 255, 0, .5)" stroke-width="0.02"/>
<path d="M 0 0 L -0.51 0.86" stroke="rgba(0, 255, 0, .5)" stroke-width="0.02"/>
<path d="M -0.51 0.86 L -1.02 1.72" stroke="rgba(0, 255, 0, .5)" stroke-width="0.02"/>
<path d="M 0 0 L -0.01 1" stroke="rgba(0, 255, 0, .5)" stroke-width="0.02"/>
<path d="M -0.01 1 L -0.02 2" stroke="rgba(0, 255, 0, .5)" stroke-width="0.02"/>
<path d="M 0 0 L 0.5 0.86" stroke="rgba(0, 255, 0, .5)" stroke-width="0.02"/>
<path d="M 0.5 0.86 L 1 1.72" stroke="rgba(0, 255, 0, .5)" stroke-width="0.02"/>
<path d="M 0 0 L 0.86 0.5" stroke="rgba(0, 255, 0, .5)" stroke-width="0.02"/>

                <path d="M 0 0 L 0.86 -0.5" stroke="rgba(255, 0, 0, .5)" stroke-width="0.02"/>
<path d="M 0.86 -0.5 L 1.72 0" stroke="rgba(255, 0, 0, .5)" stroke-width="0.02"/>
<path d="M 0 0 L 0.5 -0.87" stroke="rgba(255, 0, 0, .5)" stroke-width="0.02"/>
<path d="M 0.5 -0.87 L 0 -1.74" stroke="rgba(255, 0, 0, .5)" stroke-width="0.02"/>
<path d="M 0 0 L -0.5 -0.87" stroke="rgba(255, 0, 0, .5)" stroke-width="0.02"/>
<path d="M -0.5 -0.87 L 0 -1.74" stroke="rgba(255, 0, 0, .5)" stroke-width="0.02"/>
<path d="M 0 0 L -0.87 -0.5" stroke="rgba(255, 0, 0, .5)" stroke-width="0.02"/>
<path d="M -0.87 -0.5 L -1.74 0" stroke="rgba(255, 0, 0, .5)" stroke-width="0.02"/>
<path d="M 0 0 L -0.87 0.5" stroke="rgba(255, 0, 0, .5)" stroke-width="0.02"/>
<path d="M -0.87 0.5 L -1.74 0" stroke="rgba(255, 0, 0, .5)" stroke-width="0.02"/>
<path d="M 0 0 L -0.51 0.86" stroke="rgba(255, 0, 0, .5)" stroke-width="0.02"/>
<path d="M -0.51 0.86 L -0.01 1.72" stroke="rgba(255, 0, 0, .5)" stroke-width="0.02"/>
<path d="M 0 0 L 0.5 0.86" stroke="rgba(255, 0, 0, .5)" stroke-width="0.02"/>
<path d="M 0.5 0.86 L -0.01 1.72" stroke="rgba(255, 0, 0, .5)" stroke-width="0.02"/>
<path d="M 0 0 L 0.86 0.5" stroke="rgba(255, 0, 0, .5)" stroke-width="0.02"/>
<path d="M 0.86 0.5 L 1.72 0" stroke="rgba(255, 0, 0, .5)" stroke-width="0.02"/>
                <path d="M 0 0 L 1 0" stroke="rgba(0, 255, 0, .5)" stroke-width="0.02"/>
<path d="M 0 0 L 0.86 -0.5" stroke="rgba(0, 255, 0, .5)" stroke-width="0.02"/>
<path d="M 0 0 L 0.5 -0.87" stroke="rgba(0, 255, 0, .5)" stroke-width="0.02"/>
<path d="M 0 0 L 0 -1" stroke="rgba(0, 255, 0, .5)" stroke-width="0.02"/>
<path d="M 0 -1 L 0 -2" stroke="rgba(0, 255, 0, .5)" stroke-width="0.02"/>
<path d="M 0 0 L -0.5 -0.87" stroke="rgba(0, 255, 0, .5)" stroke-width="0.02"/>
<path d="M 0 0 L -0.87 -0.5" stroke="rgba(0, 255, 0, .5)" stroke-width="0.02"/>
<path d="M 0 0 L -1 -0.01" stroke="rgba(0, 255, 0, .5)" stroke-width="0.02"/>
<path d="M 0 0 L -0.87 0.5" stroke="rgba(0, 255, 0, .5)" stroke-width="0.02"/>
<path d="M 0 0 L -0.51 0.86" stroke="rgba(0, 255, 0, .5)" stroke-width="0.02"/>
<path d="M -0.51 0.86 L -1.02 1.72" stroke="rgba(0, 255, 0, .5)" stroke-width="0.02"/>
<path d="M 0 0 L -0.01 1" stroke="rgba(0, 255, 0, .5)" stroke-width="0.02"/>
<path d="M -0.01 1 L -0.02 2" stroke="rgba(0, 255, 0, .5)" stroke-width="0.02"/>
<path d="M 0 0 L 0.5 0.86" stroke="rgba(0, 255, 0, .5)" stroke-width="0.02"/>
<path d="M 0.5 0.86 L 1 1.72" stroke="rgba(0, 255, 0, .5)" stroke-width="0.02"/>
<path d="M 0 0 L 0.86 0.5" stroke="rgba(0, 255, 0, .5)" stroke-width="0.02"/>
            </svg>
        