
            
        <svg
            width="507.49999999999994"
            height="1002.5"
            viewBox="-1.12 -2.1 2.23 4.21"
            xmlns="http://www.w3.org/2000/svg"
        >
    
                <path d="M 0 0 L 1 0" stroke="black" stroke-width="0.02"/>
<path d="M 0 0 L 0.86 -0.5" stroke="black" stroke-width="0.02"/>
<path d="M 0 0 L 0.5 -0.87" stroke="black" stroke-width="0.02"/>
<path d="M 0 0 L 0 -1" stroke="black" stroke-width="0.02"/>
<path d="M 0 -1 L 0 -2" stroke="black" stroke-width="0.02"/>
<path d="M 0 0 L -0.5 -0.87" stroke="black" stroke-width="0.02"/>
<path d="M 0 0 L -0.87 -0.5" stroke="black" stroke-width="0.02"/>
<path d="M 0 0 L -1 -0.01" stroke="black" stroke-width="0.02"/>
<path d="M 0 0 L -0.87 0.5" stroke="black" stroke-width="0.02"/>
<path d="M 0 0 L -0.51 0.86" stroke="black" stroke-width="0.02"/>
<path d="M -0.51 0.86 L -1.02 1.72" stroke="black" stroke-width="0.02"/>
<path d="M 0 0 L -0.01 1" stroke="black" stroke-width="0.02"/>
<path d="M -0.01 1 L -0.02 2" stroke="black" stroke-width="0.02"/>
<path d="M 0 0 L 0.5 0.86" stroke="black" stroke-width="0.02"/>
<path d="M 0.5 0.86 L 1 1.72" stroke="black" stroke-width="0.02"/>
<path d="M 0 0 L 0.86 0.5" stroke="black" stroke-width="0.02"/>
            </svg>
        