
            
        <svg
            width="934.9999999999999"
            height="687.5"
            viewBox="-0.47 -2.8400000000000003 3.94 2.95"
            xmlns="http://www.w3.org/2000/svg"
        >
    
                <path d="M 0 0 L 0.5 -0.87" stroke="rgba(255, 0, 0, .5)" stroke-width="0.02"/>
<path d="M 0.5 -0.87 L 0.5 -1.87" stroke="rgba(255, 0, 0, .5)" stroke-width="0.02"/>
<path d="M 0.5 -1.87 L -0.37 -1.37" stroke="rgba(255, 0, 0, .5)" stroke-width="0.02"/>
<path d="M 0.5 -1.87 L 1.5 -1.87" stroke="rgba(255, 0, 0, .5)" stroke-width="0.02"/>
<path d="M 1.5 -1.87 L 2.5 -1.87" stroke="rgba(255, 0, 0, .5)" stroke-width="0.02"/>
<path d="M 2.5 -1.87 L 2 -2.74" stroke="rgba(255, 0, 0, .5)" stroke-width="0.02"/>
<path d="M 2.5 -1.87 L 3.36 -1.37" stroke="rgba(255, 0, 0, .5)" stroke-width="0.02"/>
<path d="M 2.5 -1.87 L 2.5 -0.88" stroke="rgba(255, 0, 0, .5)" stroke-width="0.02"/>
<path d="M 0.5 -0.87 L 1.5 -0.87" stroke="rgba(255, 0, 0, .5)" stroke-width="0.02"/>
<path d="M 1.5 -0.87 L 2.5 -0.87" stroke="rgba(255, 0, 0, .5)" stroke-width="0.02"/>
<path d="M 2.5 -0.87 L 3.36 -1.37" stroke="rgba(255, 0, 0, .5)" stroke-width="0.02"/>
<path d="M 2.5 -0.87 L 3 -0.01" stroke="rgba(255, 0, 0, .5)" stroke-width="0.02"/>
<path d="M 2.5 -0.87 L 2 -0.01" stroke="rgba(255, 0, 0, .5)" stroke-width="0.02"/>
<path d="M 0.5 -0.87 L 1 -0.01" stroke="rgba(255, 0, 0, .5)" stroke-width="0.02"/>
                <path d="M 0 0 L 0.5 -0.87" stroke="rgba(0, 255, 0, .5)" stroke-width="0.02"/>
<path d="M 0.5 -0.87 L 0.5 -1.87" stroke="rgba(0, 255, 0, .5)" stroke-width="0.02"/>
<path d="M 0.5 -1.87 L -0.37 -2.37" stroke="rgba(0, 255, 0, .5)" stroke-width="0.02"/>
<path d="M 0.5 -1.87 L 1.5 -1.87" stroke="rgba(0, 255, 0, .5)" stroke-width="0.02"/>
<path d="M 1.5 -1.87 L 2.5 -1.87" stroke="rgba(0, 255, 0, .5)" stroke-width="0.02"/>
<path d="M 2.5 -1.87 L 2 -2.74" stroke="rgba(0, 255, 0, .5)" stroke-width="0.02"/>
<path d="M 2.5 -1.87 L 1.63 -1.37" stroke="rgba(0, 255, 0, .5)" stroke-width="0.02"/>
<path d="M 2.5 -1.87 L 2.5 -0.88" stroke="rgba(0, 255, 0, .5)" stroke-width="0.02"/>
<path d="M 0.5 -0.87 L 1.5 -0.87" stroke="rgba(0, 255, 0, .5)" stroke-width="0.02"/>
<path d="M 1.5 -0.87 L 2.5 -0.87" stroke="rgba(0, 255, 0, .5)" stroke-width="0.02"/>
<path d="M 2.5 -0.87 L 1.63 -1.37" stroke="rgba(0, 255, 0, .5)" stroke-width="0.02"/>
<path d="M 2.5 -0.87 L 3 -0.01" stroke="rgba(0, 255, 0, .5)" stroke-width="0.02"/>
<path d="M 2.5 -0.87 L 2 -0.01" stroke="rgba(0, 255, 0, .5)" stroke-width="0.02"/>
<path d="M 0.5 -0.87 L 1 -0.01" stroke="rgba(0, 255, 0, .5)" stroke-width="0.02"/>

                <path d="M 0 0 L 0.5 -0.87" stroke="rgba(255, 0, 0, .5)" stroke-width="0.02"/>
<path d="M 0.5 -0.87 L 0.5 -1.87" stroke="rgba(255, 0, 0, .5)" stroke-width="0.02"/>
<path d="M 0.5 -1.87 L -0.37 -1.37" stroke="rgba(255, 0, 0, .5)" stroke-width="0.02"/>
<path d="M 0.5 -1.87 L 1.5 -1.87" stroke="rgba(255, 0, 0, .5)" stroke-width="0.02"/>
<path d="M 1.5 -1.87 L 2.5 -1.87" stroke="rgba(255, 0, 0, .5)" stroke-width="0.02"/>
<path d="M 2.5 -1.87 L 2 -2.74" stroke="rgba(255, 0, 0, .5)" stroke-width="0.02"/>
<path d="M 2.5 -1.87 L 3.36 -1.37" stroke="rgba(255, 0, 0, .5)" stroke-width="0.02"/>
<path d="M 2.5 -1.87 L 2.5 -0.88" stroke="rgba(255, 0, 0, .5)" stroke-width="0.02"/>
<path d="M 0.5 -0.87 L 1.5 -0.87" stroke="rgba(255, 0, 0, .5)" stroke-width="0.02"/>
<path d="M 1.5 -0.87 L 2.5 -0.87" stroke="rgba(255, 0, 0, .5)" stroke-width="0.02"/>
<path d="M 2.5 -0.87 L 3.36 -1.37" stroke="rgba(255, 0, 0, .5)" stroke-width="0.02"/>
<path d="M 2.5 -0.87 L 3 -0.01" stroke="rgba(255, 0, 0, .5)" stroke-width="0.02"/>
<path d="M 2.5 -0.87 L 2 -0.01" stroke="rgba(255, 0, 0, .5)" stroke-width="0.02"/>
<path d="M 0.5 -0.87 L 1 -0.01" stroke="rgba(255, 0, 0, .5)" stroke-width="0.02"/>
                <path d="M 0 0 L 0.5 -0.87" stroke="rgba(0, 255, 0, .5)" stroke-width="0.02"/>
<path d="M 0.5 -0.87 L 0.5 -1.87" stroke="rgba(0, 255, 0, .5)" stroke-width="0.02"/>
<path d="M 0.5 -1.87 L -0.37 -2.37" stroke="rgba(0, 255, 0, .5)" stroke-width="0.02"/>
<path d="M 0.5 -1.87 L 1.5 -1.87" stroke="rgba(0, 255, 0, .5)" stroke-width="0.02"/>
<path d="M 1.5 -1.87 L 2.5 -1.87" stroke="rgba(0, 255, 0, .5)" stroke-width="0.02"/>
<path d="M 2.5 -1.87 L 2 -2.74" stroke="rgba(0, 255, 0, .5)" stroke-width="0.02"/>
<path d="M 2.5 -1.87 L 1.63 -1.37" stroke="rgba(0, 255, 0, .5)" stroke-width="0.02"/>
<path d="M 2.5 -1.87 L 2.5 -0.88" stroke="rgba(0, 255, 0, .5)" stroke-width="0.02"/>
<path d="M 0.5 -0.87 L 1.5 -0.87" stroke="rgba(0, 255, 0, .5)" stroke-width="0.02"/>
<path d="M 1.5 -0.87 L 2.5 -0.87" stroke="rgba(0, 255, 0, .5)" stroke-width="0.02"/>
<path d="M 2.5 -0.87 L 1.63 -1.37" stroke="rgba(0, 255, 0, .5)" stroke-width="0.02"/>
<path d="M 2.5 -0.87 L 3 -0.01" stroke="rgba(0, 255, 0, .5)" stroke-width="0.02"/>
<path d="M 2.5 -0.87 L 2 -0.01" stroke="rgba(0, 255, 0, .5)" stroke-width="0.02"/>
<path d="M 0.5 -0.87 L 1 -0.01" stroke="rgba(0, 255, 0, .5)" stroke-width="0.02"/>

                <path d="M 0 0 L 0.5 -0.87" stroke="rgba(255, 0, 0, .5)" stroke-width="0.02"/>
<path d="M 0.5 -0.87 L 0.5 -1.87" stroke="rgba(255, 0, 0, .5)" stroke-width="0.02"/>
<path d="M 0.5 -1.87 L -0.37 -1.37" stroke="rgba(255, 0, 0, .5)" stroke-width="0.02"/>
<path d="M 0.5 -1.87 L 1.5 -1.87" stroke="rgba(255, 0, 0, .5)" stroke-width="0.02"/>
<path d="M 1.5 -1.87 L 2.5 -1.87" stroke="rgba(255, 0, 0, .5)" stroke-width="0.02"/>
<path d="M 2.5 -1.87 L 2 -2.74" stroke="rgba(255, 0, 0, .5)" stroke-width="0.02"/>
<path d="M 2.5 -1.87 L 3.36 -1.37" stroke="rgba(255, 0, 0, .5)" stroke-width="0.02"/>
<path d="M 2.5 -1.87 L 2.5 -0.88" stroke="rgba(255, 0, 0, .5)" stroke-width="0.02"/>
<path d="M 0.5 -0.87 L 1.5 -0.87" stroke="rgba(255, 0, 0, .5)" stroke-width="0.02"/>
<path d="M 1.5 -0.87 L 2.5 -0.87" stroke="rgba(255, 0, 0, .5)" stroke-width="0.02"/>
<path d="M 2.5 -0.87 L 3.36 -1.37" stroke="rgba(255, 0, 0, .5)" stroke-width="0.02"/>
<path d="M 2.5 -0.87 L 3 -0.01" stroke="rgba(255, 0, 0, .5)" stroke-width="0.02"/>
<path d="M 2.5 -0.87 L 2 -0.01" stroke="rgba(255, 0, 0, .5)" stroke-width="0.02"/>
<path d="M 0.5 -0.87 L 1 -0.01" stroke="rgba(255, 0, 0, .5)" stroke-width="0.02"/>
                <path d="M 0 0 L 0.5 -0.87" stroke="rgba(0, 255, 0, .5)" stroke-width="0.02"/>
<path d="M 0.5 -0.87 L 0.5 -1.87" stroke="rgba(0, 255, 0, .5)" stroke-width="0.02"/>
<path d="M 0.5 -1.87 L -0.37 -2.37" stroke="rgba(0, 255, 0, .5)" stroke-width="0.02"/>
<path d="M 0.5 -1.87 L 1.5 -1.87" stroke="rgba(0, 255, 0, .5)" stroke-width="0.02"/>
<path d="M 1.5 -1.87 L 2.5 -1.87" stroke="rgba(0, 255, 0, .5)" stroke-width="0.02"/>
<path d="M 2.5 -1.87 L 2 -2.74" stroke="rgba(0, 255, 0, .5)" stroke-width="0.02"/>
<path d="M 2.5 -1.87 L 1.63 -1.37" stroke="rgba(0, 255, 0, .5)" stroke-width="0.02"/>
<path d="M 2.5 -1.87 L 2.5 -0.88" stroke="rgba(0, 255, 0, .5)" stroke-width="0.02"/>
<path d="M 0.5 -0.87 L 1.5 -0.87" stroke="rgba(0, 255, 0, .5)" stroke-width="0.02"/>
<path d="M 1.5 -0.87 L 2.5 -0.87" stroke="rgba(0, 255, 0, .5)" stroke-width="0.02"/>
<path d="M 2.5 -0.87 L 1.63 -1.37" stroke="rgba(0, 255, 0, .5)" stroke-width="0.02"/>
<path d="M 2.5 -0.87 L 3 -0.01" stroke="rgba(0, 255, 0, .5)" stroke-width="0.02"/>
<path d="M 2.5 -0.87 L 2 -0.01" stroke="rgba(0, 255, 0, .5)" stroke-width="0.02"/>
<path d="M 0.5 -0.87 L 1 -0.01" stroke="rgba(0, 255, 0, .5)" stroke-width="0.02"/>
            </svg>
        